<mxfile host="app.diagrams.net" agent="Mozilla/5.0 (Macintosh; Intel Mac OS X 10_15_7) AppleWebKit/537.36 (KHTML, like Gecko) Chrome/134.0.0.0 Safari/537.36" version="26.2.14">
  <diagram name="第 1 页" id="-V-9v0B28fyK_M-3J3HF">
    <mxGraphModel dx="2042" dy="682" grid="1" gridSize="10" guides="1" tooltips="1" connect="1" arrows="1" fold="1" page="1" pageScale="1" pageWidth="827" pageHeight="1169" math="0" shadow="0">
      <root>
        <mxCell id="0" />
        <mxCell id="1" parent="0" />
        <mxCell id="GmOn8fcNfuMTC3SfBIn7-1" value="" style="rounded=0;whiteSpace=wrap;html=1;fillColor=#f5f5f5;fontColor=#333333;strokeColor=#666666;" vertex="1" parent="1">
          <mxGeometry x="80" y="720" width="680" height="40" as="geometry" />
        </mxCell>
        <mxCell id="GmOn8fcNfuMTC3SfBIn7-10" style="edgeStyle=orthogonalEdgeStyle;rounded=0;orthogonalLoop=1;jettySize=auto;html=1;" edge="1" parent="1" source="GmOn8fcNfuMTC3SfBIn7-3" target="GmOn8fcNfuMTC3SfBIn7-4">
          <mxGeometry relative="1" as="geometry">
            <Array as="points">
              <mxPoint x="200" y="700" />
              <mxPoint x="155" y="700" />
            </Array>
          </mxGeometry>
        </mxCell>
        <mxCell id="GmOn8fcNfuMTC3SfBIn7-11" style="edgeStyle=orthogonalEdgeStyle;rounded=0;orthogonalLoop=1;jettySize=auto;html=1;exitX=0.5;exitY=1;exitDx=0;exitDy=0;" edge="1" parent="1" source="GmOn8fcNfuMTC3SfBIn7-3" target="GmOn8fcNfuMTC3SfBIn7-5">
          <mxGeometry relative="1" as="geometry">
            <Array as="points">
              <mxPoint x="200" y="700" />
              <mxPoint x="355" y="700" />
            </Array>
          </mxGeometry>
        </mxCell>
        <mxCell id="GmOn8fcNfuMTC3SfBIn7-12" style="edgeStyle=orthogonalEdgeStyle;rounded=0;orthogonalLoop=1;jettySize=auto;html=1;exitX=0.5;exitY=1;exitDx=0;exitDy=0;" edge="1" parent="1" source="GmOn8fcNfuMTC3SfBIn7-3" target="GmOn8fcNfuMTC3SfBIn7-8">
          <mxGeometry relative="1" as="geometry">
            <Array as="points">
              <mxPoint x="200" y="700" />
              <mxPoint x="575" y="700" />
            </Array>
          </mxGeometry>
        </mxCell>
        <mxCell id="GmOn8fcNfuMTC3SfBIn7-3" value="MD0" style="rounded=0;whiteSpace=wrap;html=1;fillColor=#d5e8d4;strokeColor=#82b366;" vertex="1" parent="1">
          <mxGeometry x="160" y="618" width="80" height="40" as="geometry" />
        </mxCell>
        <mxCell id="GmOn8fcNfuMTC3SfBIn7-4" value="R/W" style="rounded=0;whiteSpace=wrap;html=1;fillColor=#d5e8d4;strokeColor=#82b366;" vertex="1" parent="1">
          <mxGeometry x="120" y="720" width="70" height="40" as="geometry" />
        </mxCell>
        <mxCell id="GmOn8fcNfuMTC3SfBIn7-5" value="X" style="rounded=0;whiteSpace=wrap;html=1;fillColor=#d5e8d4;strokeColor=#82b366;" vertex="1" parent="1">
          <mxGeometry x="320" y="720" width="70" height="40" as="geometry" />
        </mxCell>
        <mxCell id="GmOn8fcNfuMTC3SfBIn7-6" value="R" style="rounded=0;whiteSpace=wrap;html=1;fillColor=#dae8fc;strokeColor=#6c8ebf;" vertex="1" parent="1">
          <mxGeometry x="210" y="720" width="70" height="40" as="geometry" />
        </mxCell>
        <mxCell id="GmOn8fcNfuMTC3SfBIn7-7" value="R" style="rounded=0;whiteSpace=wrap;html=1;fillColor=#ffe6cc;strokeColor=#d79b00;" vertex="1" parent="1">
          <mxGeometry x="430" y="720" width="70" height="40" as="geometry" />
        </mxCell>
        <mxCell id="GmOn8fcNfuMTC3SfBIn7-8" value="R/W/X" style="rounded=0;whiteSpace=wrap;html=1;fillColor=#d5e8d4;strokeColor=#82b366;" vertex="1" parent="1">
          <mxGeometry x="540" y="720" width="70" height="40" as="geometry" />
        </mxCell>
        <mxCell id="GmOn8fcNfuMTC3SfBIn7-9" value="R/W" style="rounded=0;whiteSpace=wrap;html=1;fillColor=#ffe6cc;strokeColor=#d79b00;" vertex="1" parent="1">
          <mxGeometry x="650" y="720" width="70" height="40" as="geometry" />
        </mxCell>
        <mxCell id="GmOn8fcNfuMTC3SfBIn7-14" style="edgeStyle=orthogonalEdgeStyle;rounded=0;orthogonalLoop=1;jettySize=auto;html=1;entryX=0.5;entryY=0;entryDx=0;entryDy=0;exitX=0.5;exitY=1;exitDx=0;exitDy=0;" edge="1" parent="1" source="GmOn8fcNfuMTC3SfBIn7-13" target="GmOn8fcNfuMTC3SfBIn7-6">
          <mxGeometry relative="1" as="geometry">
            <Array as="points">
              <mxPoint x="330" y="680" />
              <mxPoint x="245" y="680" />
            </Array>
          </mxGeometry>
        </mxCell>
        <mxCell id="GmOn8fcNfuMTC3SfBIn7-13" value="MD1" style="rounded=0;whiteSpace=wrap;html=1;fillColor=#dae8fc;strokeColor=#6c8ebf;" vertex="1" parent="1">
          <mxGeometry x="290" y="618" width="80" height="40" as="geometry" />
        </mxCell>
        <mxCell id="GmOn8fcNfuMTC3SfBIn7-16" style="edgeStyle=orthogonalEdgeStyle;rounded=0;orthogonalLoop=1;jettySize=auto;html=1;entryX=0.5;entryY=0;entryDx=0;entryDy=0;exitX=0.5;exitY=1;exitDx=0;exitDy=0;" edge="1" parent="1" source="GmOn8fcNfuMTC3SfBIn7-15" target="GmOn8fcNfuMTC3SfBIn7-7">
          <mxGeometry relative="1" as="geometry">
            <Array as="points">
              <mxPoint x="575" y="680" />
              <mxPoint x="465" y="680" />
            </Array>
          </mxGeometry>
        </mxCell>
        <mxCell id="GmOn8fcNfuMTC3SfBIn7-17" style="edgeStyle=orthogonalEdgeStyle;rounded=0;orthogonalLoop=1;jettySize=auto;html=1;exitX=0.5;exitY=1;exitDx=0;exitDy=0;" edge="1" parent="1" source="GmOn8fcNfuMTC3SfBIn7-15" target="GmOn8fcNfuMTC3SfBIn7-9">
          <mxGeometry relative="1" as="geometry">
            <Array as="points">
              <mxPoint x="575" y="680" />
              <mxPoint x="685" y="680" />
            </Array>
          </mxGeometry>
        </mxCell>
        <mxCell id="GmOn8fcNfuMTC3SfBIn7-15" value="MDn" style="rounded=0;whiteSpace=wrap;html=1;fillColor=#ffe6cc;strokeColor=#d79b00;" vertex="1" parent="1">
          <mxGeometry x="535" y="618" width="80" height="40" as="geometry" />
        </mxCell>
        <mxCell id="GmOn8fcNfuMTC3SfBIn7-18" value="&lt;font style=&quot;font-size: 20px;&quot;&gt;......&lt;/font&gt;" style="text;html=1;align=center;verticalAlign=middle;resizable=0;points=[];autosize=1;strokeColor=none;fillColor=none;" vertex="1" parent="1">
          <mxGeometry x="421" y="613" width="60" height="40" as="geometry" />
        </mxCell>
        <mxCell id="GmOn8fcNfuMTC3SfBIn7-21" style="edgeStyle=orthogonalEdgeStyle;rounded=0;orthogonalLoop=1;jettySize=auto;html=1;entryX=0.5;entryY=0;entryDx=0;entryDy=0;" edge="1" parent="1" source="GmOn8fcNfuMTC3SfBIn7-20" target="GmOn8fcNfuMTC3SfBIn7-3">
          <mxGeometry relative="1" as="geometry">
            <Array as="points">
              <mxPoint x="270" y="600" />
              <mxPoint x="200" y="600" />
            </Array>
          </mxGeometry>
        </mxCell>
        <mxCell id="GmOn8fcNfuMTC3SfBIn7-22" style="edgeStyle=orthogonalEdgeStyle;rounded=0;orthogonalLoop=1;jettySize=auto;html=1;exitX=0.5;exitY=1;exitDx=0;exitDy=0;" edge="1" parent="1" source="GmOn8fcNfuMTC3SfBIn7-20" target="GmOn8fcNfuMTC3SfBIn7-15">
          <mxGeometry relative="1" as="geometry">
            <Array as="points">
              <mxPoint x="270" y="600" />
              <mxPoint x="575" y="600" />
            </Array>
          </mxGeometry>
        </mxCell>
        <mxCell id="GmOn8fcNfuMTC3SfBIn7-20" value="RRID=0" style="rounded=0;whiteSpace=wrap;html=1;fillColor=#fff2cc;strokeColor=#d6b656;" vertex="1" parent="1">
          <mxGeometry x="230" y="518" width="80" height="40" as="geometry" />
        </mxCell>
        <mxCell id="GmOn8fcNfuMTC3SfBIn7-23" value="&lt;font style=&quot;font-size: 20px;&quot;&gt;......&lt;/font&gt;" style="text;html=1;align=center;verticalAlign=middle;resizable=0;points=[];autosize=1;strokeColor=none;fillColor=none;" vertex="1" parent="1">
          <mxGeometry x="383" y="512" width="60" height="40" as="geometry" />
        </mxCell>
        <mxCell id="GmOn8fcNfuMTC3SfBIn7-25" style="edgeStyle=orthogonalEdgeStyle;rounded=0;orthogonalLoop=1;jettySize=auto;html=1;entryX=0.5;entryY=0;entryDx=0;entryDy=0;exitX=0.5;exitY=1;exitDx=0;exitDy=0;" edge="1" parent="1" source="GmOn8fcNfuMTC3SfBIn7-24" target="GmOn8fcNfuMTC3SfBIn7-13">
          <mxGeometry relative="1" as="geometry">
            <Array as="points">
              <mxPoint x="550" y="578" />
              <mxPoint x="330" y="578" />
            </Array>
          </mxGeometry>
        </mxCell>
        <mxCell id="GmOn8fcNfuMTC3SfBIn7-24" value="RRID=m" style="rounded=0;whiteSpace=wrap;html=1;fillColor=#fff2cc;strokeColor=#d6b656;" vertex="1" parent="1">
          <mxGeometry x="510" y="518" width="80" height="40" as="geometry" />
        </mxCell>
        <mxCell id="GmOn8fcNfuMTC3SfBIn7-26" value="&lt;font style=&quot;font-size: 18px;&quot;&gt;RRID&lt;/font&gt;" style="text;html=1;align=center;verticalAlign=middle;resizable=0;points=[];autosize=1;strokeColor=none;fillColor=none;" vertex="1" parent="1">
          <mxGeometry x="10" y="518" width="70" height="40" as="geometry" />
        </mxCell>
        <mxCell id="GmOn8fcNfuMTC3SfBIn7-27" value="&lt;font style=&quot;font-size: 16px;&quot;&gt;Memory Domain&lt;/font&gt;" style="text;html=1;align=center;verticalAlign=middle;resizable=0;points=[];autosize=1;strokeColor=none;fillColor=none;" vertex="1" parent="1">
          <mxGeometry x="-60" y="623" width="140" height="30" as="geometry" />
        </mxCell>
        <mxCell id="GmOn8fcNfuMTC3SfBIn7-28" value="&lt;font style=&quot;font-size: 16px;&quot;&gt;Physical Memory&lt;/font&gt;" style="text;html=1;align=center;verticalAlign=middle;resizable=0;points=[];autosize=1;strokeColor=none;fillColor=none;" vertex="1" parent="1">
          <mxGeometry x="-65" y="725" width="150" height="30" as="geometry" />
        </mxCell>
      </root>
    </mxGraphModel>
  </diagram>
</mxfile>
